<mxfile host="app.diagrams.net" modified="2021-08-30T05:10:40.820Z" agent="5.0 (Windows NT 10.0; Win64; x64) AppleWebKit/537.36 (KHTML, like Gecko) Chrome/92.0.4515.131 Safari/537.36 Edg/92.0.902.67" etag="Y8X7CQw8NeUz1IayO-cM" version="15.0.3" type="github">
  <diagram name="Page-1" id="5f0bae14-7c28-e335-631c-24af17079c00">
    <mxGraphModel dx="820" dy="482" grid="1" gridSize="10" guides="1" tooltips="1" connect="1" arrows="1" fold="1" page="1" pageScale="1" pageWidth="1100" pageHeight="850" background="none" math="0" shadow="0">
      <root>
        <mxCell id="0" />
        <mxCell id="1" parent="0" />
        <mxCell id="X676dhnKxZEzzE5Ao7Za-1" value="Pricing plans pricing(csv)" style="shape=document;whiteSpace=wrap;html=1;boundedLbl=1;" vertex="1" parent="1">
          <mxGeometry x="160" y="280" width="140" height="60" as="geometry" />
        </mxCell>
        <mxCell id="X676dhnKxZEzzE5Ao7Za-2" value="Transaction Template(csv)" style="shape=document;whiteSpace=wrap;html=1;boundedLbl=1;" vertex="1" parent="1">
          <mxGeometry x="160" y="365" width="140" height="60" as="geometry" />
        </mxCell>
        <mxCell id="X676dhnKxZEzzE5Ao7Za-3" value="Pricing plan scenarios(csv)" style="shape=document;whiteSpace=wrap;html=1;boundedLbl=1;" vertex="1" parent="1">
          <mxGeometry x="160" y="450" width="140" height="60" as="geometry" />
        </mxCell>
        <mxCell id="X676dhnKxZEzzE5Ao7Za-13" value="" style="edgeStyle=orthogonalEdgeStyle;rounded=0;orthogonalLoop=1;jettySize=auto;html=1;" edge="1" parent="1" source="X676dhnKxZEzzE5Ao7Za-4" target="X676dhnKxZEzzE5Ao7Za-10">
          <mxGeometry relative="1" as="geometry" />
        </mxCell>
        <mxCell id="X676dhnKxZEzzE5Ao7Za-4" value="" style="shape=step;perimeter=stepPerimeter;whiteSpace=wrap;html=1;fixedSize=1;" vertex="1" parent="1">
          <mxGeometry x="370" y="370" width="70" height="25" as="geometry" />
        </mxCell>
        <mxCell id="X676dhnKxZEzzE5Ao7Za-5" value="" style="endArrow=classic;html=1;" edge="1" parent="1">
          <mxGeometry width="50" height="50" relative="1" as="geometry">
            <mxPoint x="300" y="475" as="sourcePoint" />
            <mxPoint x="360" y="390" as="targetPoint" />
          </mxGeometry>
        </mxCell>
        <mxCell id="X676dhnKxZEzzE5Ao7Za-6" value="" style="endArrow=classic;html=1;" edge="1" parent="1">
          <mxGeometry width="50" height="50" relative="1" as="geometry">
            <mxPoint x="300" y="310" as="sourcePoint" />
            <mxPoint x="360" y="390" as="targetPoint" />
          </mxGeometry>
        </mxCell>
        <mxCell id="X676dhnKxZEzzE5Ao7Za-7" value="" style="endArrow=classic;html=1;" edge="1" parent="1">
          <mxGeometry width="50" height="50" relative="1" as="geometry">
            <mxPoint x="300" y="390" as="sourcePoint" />
            <mxPoint x="370" y="390" as="targetPoint" />
          </mxGeometry>
        </mxCell>
        <mxCell id="X676dhnKxZEzzE5Ao7Za-8" value="Data load" style="text;html=1;strokeColor=none;fillColor=none;align=center;verticalAlign=middle;whiteSpace=wrap;rounded=0;" vertex="1" parent="1">
          <mxGeometry x="370" y="340" width="60" height="20" as="geometry" />
        </mxCell>
        <mxCell id="X676dhnKxZEzzE5Ao7Za-9" value="" style="swimlane;startSize=0;" vertex="1" parent="1">
          <mxGeometry x="360" y="280" width="230" height="270" as="geometry" />
        </mxCell>
        <mxCell id="X676dhnKxZEzzE5Ao7Za-10" value="H2 DB" style="shape=cylinder3;whiteSpace=wrap;html=1;boundedLbl=1;backgroundOutline=1;size=15;" vertex="1" parent="X676dhnKxZEzzE5Ao7Za-9">
          <mxGeometry x="120" y="50" width="60" height="80" as="geometry" />
        </mxCell>
        <mxCell id="X676dhnKxZEzzE5Ao7Za-14" value="Services" style="swimlane;fontStyle=0;childLayout=stackLayout;horizontal=1;startSize=26;horizontalStack=0;resizeParent=1;resizeParentMax=0;resizeLast=0;collapsible=1;marginBottom=0;" vertex="1" parent="X676dhnKxZEzzE5Ao7Za-9">
          <mxGeometry x="10" y="160" width="210" height="104" as="geometry" />
        </mxCell>
        <mxCell id="X676dhnKxZEzzE5Ao7Za-15" value="GetPricing" style="text;strokeColor=none;fillColor=none;align=left;verticalAlign=top;spacingLeft=4;spacingRight=4;overflow=hidden;rotatable=0;points=[[0,0.5],[1,0.5]];portConstraint=eastwest;" vertex="1" parent="X676dhnKxZEzzE5Ao7Za-14">
          <mxGeometry y="26" width="210" height="26" as="geometry" />
        </mxCell>
        <mxCell id="X676dhnKxZEzzE5Ao7Za-16" value="RequestPricing" style="text;strokeColor=none;fillColor=none;align=left;verticalAlign=top;spacingLeft=4;spacingRight=4;overflow=hidden;rotatable=0;points=[[0,0.5],[1,0.5]];portConstraint=eastwest;" vertex="1" parent="X676dhnKxZEzzE5Ao7Za-14">
          <mxGeometry y="52" width="210" height="26" as="geometry" />
        </mxCell>
        <mxCell id="X676dhnKxZEzzE5Ao7Za-17" value="GetProcessedTransactionsFromMir" style="text;strokeColor=none;fillColor=none;align=left;verticalAlign=top;spacingLeft=4;spacingRight=4;overflow=hidden;rotatable=0;points=[[0,0.5],[1,0.5]];portConstraint=eastwest;" vertex="1" parent="X676dhnKxZEzzE5Ao7Za-14">
          <mxGeometry y="78" width="210" height="26" as="geometry" />
        </mxCell>
        <mxCell id="X676dhnKxZEzzE5Ao7Za-11" value="miRevenueTestApp" style="text;html=1;align=center;verticalAlign=middle;resizable=0;points=[];autosize=1;strokeColor=none;" vertex="1" parent="1">
          <mxGeometry x="360" y="290" width="120" height="20" as="geometry" />
        </mxCell>
      </root>
    </mxGraphModel>
  </diagram>
</mxfile>
